<svg xmlns="http://www.w3.org/2000/svg" viewBox="0 0 131 30">
    <path fill="#AE7AFF" d="M125 0h6v6h-6V0Z"/>
    <path fill="#E99898" d="M121 4h6v6h-6V4Z"/>
    <path fill="#FFFFFF" d="M.625 24.214 7.621 5h5.208l7.088 19.214h-5.063l-4.471-12.901a13.527 13.527 0 0 1-.237-.869 18.18 18.18 0 0 1-.158-.775h-.092c-.043.245-.096.504-.157.775a8.385 8.385 0 0 1-.25.868L5.096 24.215H.625Zm4.314-3.801.92-3.38h8.443l.947 3.38H4.939Zm16.044 9.297V10.748h4.432l.052 1.46h.066c.28-.509.767-.93 1.46-1.263a5.326 5.326 0 0 1 2.314-.5c1.745 0 3.152.605 4.222 1.815 1.078 1.21 1.617 2.872 1.617 4.985v.42c0 2.087-.53 3.744-1.591 4.971-1.06 1.228-2.442 1.842-4.142 1.842-.833 0-1.587-.132-2.262-.395-.676-.272-1.184-.653-1.526-1.144v6.773h-4.642Zm4.642-10.23c.167.446.465.832.894 1.157a2.48 2.48 0 0 0 1.513.486c.797 0 1.394-.267 1.788-.802.395-.544.592-1.337.592-2.38v-.947c0-1.052-.202-1.841-.605-2.367-.394-.535-.99-.803-1.788-.803-.605 0-1.11.158-1.513.474a2.827 2.827 0 0 0-.881 1.118v4.063Zm11.796 10.23V10.748h4.432l.053 1.46h.066c.28-.509.767-.93 1.46-1.263a5.326 5.326 0 0 1 2.314-.5c1.745 0 3.152.605 4.221 1.815 1.079 1.21 1.618 2.872 1.618 4.985v.42c0 2.087-.53 3.744-1.591 4.971-1.061 1.228-2.442 1.842-4.143 1.842-.833 0-1.587-.132-2.262-.395-.675-.272-1.183-.653-1.525-1.144v6.773H37.42Zm4.643-10.23c.166.446.464.832.894 1.157.438.324.943.486 1.512.486.798 0 1.394-.267 1.789-.802.394-.544.592-1.337.592-2.38v-.947c0-1.052-.202-1.841-.605-2.367-.395-.535-.991-.803-1.789-.803-.605 0-1.109.158-1.512.474a2.827 2.827 0 0 0-.881 1.118v4.063Zm12.059 4.734V5.066h4.8V20.57h7.878v3.643H54.123Zm13.874-6.537v-.42c0-2.14.68-3.827 2.039-5.063 1.367-1.237 3.138-1.855 5.313-1.855 2.183 0 3.954.618 5.313 1.855 1.367 1.236 2.051 2.923 2.051 5.063v.42c0 2.131-.683 3.819-2.051 5.064-1.36 1.236-3.13 1.854-5.313 1.854-2.175 0-3.946-.618-5.313-1.854-1.36-1.245-2.039-2.933-2.039-5.064Zm4.735-.697v.96c0 1.114.228 1.938.684 2.473.464.526 1.109.789 1.933.789.833 0 1.477-.263 1.933-.79.456-.534.684-1.358.684-2.471v-.96c0-1.105-.237-1.92-.71-2.447-.465-.534-1.1-.802-1.907-.802-.807 0-1.447.268-1.92.803-.465.525-.697 1.34-.697 2.445Zm12.467 11.258 1.539-2.801c.315.28.854.56 1.617.841a6.84 6.84 0 0 0 2.446.434c.886 0 1.618-.267 2.196-.802.58-.526.868-1.372.868-2.538v-.592c-.341.526-.828.938-1.46 1.236-.622.29-1.385.434-2.288.434-1.727 0-3.125-.613-4.195-1.84-1.06-1.228-1.591-2.868-1.591-4.92v-.42c0-2.06.522-3.704 1.565-4.932 1.052-1.236 2.455-1.854 4.208-1.854.824 0 1.583.166 2.275.5.693.333 1.184.767 1.473 1.302h.066l.053-1.539h4.497v12.257c0 2.253-.68 3.98-2.038 5.181C95.08 29.395 93.357 30 91.26 30c-1.297 0-2.468-.171-3.51-.513-1.035-.333-1.886-.75-2.552-1.25Zm3.84-10.376c0 .99.21 1.784.631 2.38.421.587 1.057.881 1.907.881.552 0 1.026-.167 1.42-.5.395-.333.675-.714.842-1.144v-3.932a2.693 2.693 0 0 0-.881-1.25c-.395-.315-.877-.473-1.447-.473-.815 0-1.433.298-1.854.895-.412.596-.618 1.39-.618 2.38v.763Zm11.704-.185v-.42c0-2.14.68-3.827 2.039-5.063 1.367-1.237 3.138-1.855 5.313-1.855 2.183 0 3.954.618 5.313 1.855 1.367 1.236 2.051 2.923 2.051 5.063v.42c0 2.131-.684 3.819-2.051 5.064-1.359 1.236-3.13 1.854-5.313 1.854-2.175 0-3.946-.618-5.313-1.854-1.359-1.245-2.039-2.933-2.039-5.064Zm4.735-.697v.96c0 1.114.228 1.938.684 2.473.464.526 1.109.789 1.933.789.833 0 1.477-.263 1.933-.79.456-.534.684-1.358.684-2.471v-.96c0-1.105-.237-1.92-.71-2.447-.465-.534-1.101-.802-1.907-.802-.807 0-1.447.268-1.92.803-.465.525-.697 1.34-.697 2.445Z"/>
</svg>
